<?xml version="1.0" standalone="no"?>
<!DOCTYPE svg PUBLIC "-//W3C//DTD SVG 20010904//EN"
 "http://www.w3.org/TR/2001/REC-SVG-20010904/DTD/svg10.dtd">
<svg version="1.0" xmlns="http://www.w3.org/2000/svg"
 width="757.000000pt" height="630.000000pt" viewBox="0 0 757.000000 630.000000"
 preserveAspectRatio="xMidYMid meet">
<metadata>
Created by potrace 1.16, written by Peter Selinger 2001-2019
</metadata>
<g transform="translate(0.000000,630.000000) scale(0.100000,-0.100000)"
fill="#000000" stroke="none">
<path d="M3545 5295 c-49 -36 -99 -69 -110 -74 -12 -5 -27 -16 -34 -25 -7 -9
-17 -16 -22 -16 -5 0 -17 -7 -26 -15 -17 -14 -76 -56 -210 -148 -87 -59 -95
-80 -100 -259 -6 -212 11 -243 105 -198 47 23 56 25 46 8 -4 -7 -3 -8 4 -4 7
4 12 13 13 19 0 7 33 28 72 47 40 19 74 38 77 41 8 9 136 69 148 69 6 0 12 4
14 8 2 5 37 25 78 46 119 59 110 33 110 306 0 214 -2 239 -17 251 -16 12 -17
12 -5 -2 9 -13 12 -74 10 -255 l-3 -239 -297 -150 c-246 -124 -301 -148 -315
-139 -16 10 -18 31 -21 176 -2 157 -2 166 21 199 12 19 61 61 109 94 47 33
170 118 272 189 102 71 186 131 186 133 0 10 -24 -4 -105 -62z"/>
<path d="M3732 4748 c-7 -7 -12 -28 -12 -49 0 -69 -12 -129 -26 -129 -12 0
-14 -57 -14 -325 l0 -325 -40 0 c-22 0 -40 -4 -40 -10 0 -6 -33 -10 -79 -10
-74 0 -79 -1 -74 -20 3 -12 0 -20 -6 -20 -7 0 -10 -4 -7 -8 2 -4 -4 -13 -15
-20 -23 -14 -25 -7 -4 14 23 24 18 34 -18 34 -27 0 -35 -5 -44 -30 -9 -25 -17
-30 -43 -30 -38 0 -69 -24 -43 -34 14 -6 14 -9 -5 -26 -12 -11 -30 -20 -42
-20 -11 0 -20 -4 -20 -9 0 -5 -24 -19 -54 -31 -88 -35 -86 -24 -89 -463 -1
-207 1 -377 6 -377 10 0 -3 -52 -17 -66 -6 -6 -27 -11 -46 -10 -70 0 -140 -8
-140 -16 0 -4 -31 -8 -70 -8 -40 0 -70 -4 -70 -10 0 -18 -89 -11 -130 10 -42
21 -90 27 -90 10 0 -5 -9 -10 -20 -10 -11 0 -20 -4 -20 -10 0 -5 -7 -10 -15
-10 -8 0 -15 5 -15 10 0 6 7 10 15 10 8 0 15 5 15 10 0 6 -8 10 -19 10 -15 0
-20 11 -26 63 -4 34 -7 89 -6 122 1 33 -5 78 -13 100 -9 25 -15 86 -15 168 -2
156 -10 175 -71 170 -22 -2 -40 -1 -40 2 0 2 20 13 45 24 27 12 50 30 57 45 9
20 14 23 24 15 8 -6 26 -9 41 -6 26 4 196 66 338 122 33 13 96 36 139 52 124
44 145 77 146 228 0 30 3 36 10 25 7 -11 10 -7 10 17 0 21 -5 32 -12 30 -7 -1
-14 8 -16 21 -5 35 -72 32 -146 -7 -28 -15 -67 -33 -86 -41 -19 -7 -73 -31
-120 -53 -47 -21 -94 -43 -105 -47 -72 -30 -162 -76 -179 -91 -11 -11 -24 -19
-28 -19 -5 0 -6 81 -3 183 6 195 3 211 -43 219 -16 2 -19 7 -13 17 8 12 12 12
24 2 9 -7 18 -8 21 -2 3 5 1 11 -6 13 -10 4 -10 10 0 32 8 18 12 87 12 215 0
176 -1 189 -20 206 -20 18 -22 18 -70 -6 -27 -13 -50 -27 -50 -31 0 -4 -28
-22 -62 -40 -35 -18 -84 -53 -109 -79 l-46 -45 -2 -85 c-2 -133 -13 -275 -22
-290 -4 -7 -12 -10 -16 -5 -4 5 -2 11 5 13 6 3 10 9 6 14 -9 15 -41 10 -48 -7
-9 -22 -8 -24 10 -24 12 0 14 -7 9 -30 -4 -19 -3 -30 4 -30 6 0 11 5 11 10 0
6 7 10 15 10 23 0 18 -14 -16 -51 -24 -26 -32 -30 -39 -19 -5 8 -13 11 -17 6
-4 -5 -2 -11 5 -13 15 -6 17 -163 2 -163 -6 0 -10 -33 -10 -80 0 -47 4 -80 10
-80 15 0 13 -177 -2 -183 -10 -4 -9 -8 2 -16 12 -9 13 -12 1 -20 -7 -5 -14
-23 -15 -40 -1 -25 -5 -31 -21 -29 -11 0 -29 0 -40 -1 l-20 -2 20 -15 c14 -11
15 -15 5 -14 -8 1 -44 2 -79 1 -52 -1 -61 -3 -52 -14 8 -10 7 -28 -5 -68 -12
-38 -13 -54 -5 -57 9 -3 9 -8 0 -18 -9 -11 -11 -73 -6 -240 l6 -225 25 -24
c45 -41 151 -32 242 20 59 34 75 20 46 -39 -12 -25 -19 -52 -16 -61 3 -8 1
-28 -4 -45 -7 -19 -7 -30 -1 -30 15 0 10 -265 -6 -304 -7 -17 -11 -37 -9 -44
1 -7 0 -8 -3 -2 -6 12 -176 14 -201 1 -42 -21 -86 -31 -96 -21 -6 6 -25 10
-42 10 -18 0 -36 5 -40 11 -3 6 -9 7 -13 3 -8 -12 -73 -35 -80 -29 -3 3 3 27
12 53 13 35 17 80 17 177 0 132 -9 192 -32 206 -10 6 -8 16 7 41 17 28 21 55
23 182 3 106 1 146 -7 142 -8 -5 -11 21 -11 84 0 50 -5 100 -10 111 -12 21
-46 25 -98 10 -20 -6 -44 -6 -64 0 -22 6 -34 6 -36 -1 -5 -13 -42 -13 -42 0 0
6 -6 10 -14 10 -8 0 -16 -16 -20 -40 -6 -38 -26 -48 -26 -14 0 22 -16 16 -28
-11 -16 -35 -15 -48 3 -41 18 6 17 18 14 -174 -1 -85 -2 -186 -2 -225 0 -73
-11 -94 -49 -95 -21 0 -24 16 -5 23 6 3 2 6 -10 6 -18 1 -23 -5 -23 -22 0 -19
-8 -25 -49 -36 -27 -7 -63 -13 -80 -13 -17 -1 -31 -5 -31 -10 0 -5 4 -6 10 -3
5 3 10 2 10 -4 0 -5 -4 -13 -10 -16 -5 -3 -10 -15 -10 -26 0 -10 -4 -19 -10
-19 -6 0 -10 -33 -10 -80 0 -47 4 -80 10 -80 6 0 10 -46 10 -118 0 -115 -1
-119 -24 -132 -13 -7 -38 -10 -56 -8 -17 3 -33 1 -36 -4 -3 -4 -11 -8 -17 -8
-7 0 -6 4 3 10 12 8 11 10 -7 10 -12 0 -23 -5 -25 -11 -4 -13 -98 -2 -98 12 0
5 -49 9 -110 9 -67 0 -110 -4 -110 -10 0 -6 -27 -10 -60 -10 -33 0 -60 4 -60
10 0 6 -25 10 -56 10 -61 0 -84 -14 -84 -53 0 -22 4 -25 68 -31 783 -74 3345
-296 3426 -297 61 0 647 40 1301 90 655 49 1269 95 1365 100 96 6 290 18 430
26 336 19 396 25 379 36 -12 7 -11 9 1 9 17 0 7 7 -86 55 -40 21 -58 26 -61
18 -3 -9 -29 -13 -84 -13 -46 0 -79 -4 -79 -10 0 -15 -157 -13 -162 2 -4 10
-17 10 -64 0 -33 -6 -81 -12 -106 -12 -28 0 -48 -5 -50 -12 -4 -10 -16 -10
-57 -2 -28 6 -54 7 -57 2 -8 -12 -92 -10 -117 3 -16 9 -22 9 -25 0 -2 -7 -29
-11 -68 -11 -36 0 -73 -4 -83 -10 -17 -9 -19 -4 -20 63 -2 89 -15 138 -41 154
-28 18 -251 19 -279 1 -27 -17 -39 -2 -34 44 9 83 9 408 1 408 -5 0 -7 4 -4 9
4 5 -7 21 -24 34 -35 30 -37 37 -10 37 11 0 20 4 20 10 0 5 10 14 21 21 15 8
19 8 15 0 -4 -6 -2 -11 5 -11 7 0 9 -8 6 -21 -3 -12 -3 -18 0 -15 4 3 11 2 17
-3 11 -9 115 -28 211 -38 42 -4 54 -1 73 17 l24 23 -4 243 c-4 277 4 255 -98
294 -30 12 -63 26 -72 31 -10 5 -29 9 -42 9 -14 0 -28 5 -31 10 -11 18 -60 11
-75 -10 -19 -26 -25 -25 -39 8 -13 30 -71 72 -98 71 -11 0 -3 -8 18 -18 73
-34 69 -15 69 -312 0 -318 9 -298 -122 -273 -46 8 -108 19 -138 24 -30 4 -86
13 -125 19 -140 22 -174 32 -190 54 -13 18 -15 70 -15 318 0 164 3 304 6 313
3 9 14 16 23 16 9 0 111 -31 225 -70 222 -75 294 -92 161 -40 -11 5 -51 19
-90 31 -38 13 -72 27 -75 30 -3 4 -20 10 -38 14 -18 4 -38 15 -44 24 -7 12
-19 16 -34 13 -14 -2 -24 0 -24 7 0 7 -20 11 -50 11 -46 0 -50 2 -50 24 0 13
-3 32 -7 41 -5 16 -7 15 -17 -3 -9 -17 -11 -9 -10 41 0 34 -3 69 -7 77 -4 8
-9 136 -12 283 -4 164 -10 273 -16 281 -6 7 -30 22 -53 33 -101 49 -215 101
-238 110 -33 13 -69 -3 -72 -31 -5 -60 -6 -103 -8 -361 -1 -154 1 -288 5 -297
5 -13 2 -18 -8 -18 -8 0 -17 6 -20 13 -3 9 -7 9 -17 1 -9 -9 -17 -7 -31 7 -19
19 -18 39 2 39 6 0 8 -3 6 -7 -3 -5 5 -9 18 -9 17 -1 23 3 22 17 -1 21 -17 27
-17 7 -1 -7 -9 -3 -19 10 -11 12 -24 22 -30 22 -6 0 -11 5 -11 10 0 6 -4 10
-10 10 -5 0 -10 -9 -10 -20 0 -11 5 -20 10 -20 6 0 10 -4 10 -8 0 -16 -35 -9
-51 10 -9 10 -24 18 -33 18 -9 0 -16 5 -16 10 0 6 7 10 15 10 8 0 15 5 15 10
0 17 -22 11 -42 -12 -15 -17 -21 -19 -27 -9 -5 7 -23 12 -42 11 -58 -3 -69 -1
-76 17 -4 10 -17 28 -30 41 -13 13 -23 28 -23 34 0 6 8 1 19 -10 10 -12 21
-22 25 -22 12 0 6 38 -6 43 -10 3 -10 7 0 20 18 21 6 57 -18 57 -16 0 -19 12
-25 99 -7 100 -21 178 -26 151 -2 -8 -5 74 -8 182 l-6 197 -39 36 c-21 19 -44
35 -51 35 -7 0 -30 9 -52 19 -102 52 -174 83 -178 79 -3 -3 52 -31 123 -63 70
-32 139 -71 155 -87 l27 -29 -2 -352 -3 -352 -27 -3 c-36 -4 -396 117 -418
140 -14 15 -18 50 -23 206 -4 103 -7 273 -7 378 0 234 2 237 102 189 67 -32
75 -24 9 9 -55 28 -90 33 -109 14z m-1374 -160 c8 -8 12 -64 12 -184 0 -210
-2 -216 -109 -274 -41 -22 -80 -40 -88 -40 -7 0 -13 -4 -13 -10 0 -5 -12 -10
-26 -10 -14 0 -23 -4 -20 -9 5 -8 -25 -21 -50 -21 -16 0 -26 143 -18 267 7
100 9 107 36 132 36 31 239 160 254 161 5 0 15 -5 22 -12z m2467 -325 c44 -21
82 -40 85 -44 3 -3 21 -11 40 -18 70 -24 91 -36 97 -59 3 -13 2 -156 -2 -318
-6 -253 -9 -294 -22 -294 -26 0 -93 23 -93 32 0 4 -18 8 -41 8 -22 0 -38 4
-35 9 3 5 -7 11 -22 14 -71 15 -89 22 -109 46 -13 14 -23 31 -23 36 0 6 5 3
10 -5 8 -12 10 -10 10 8 0 13 -4 20 -10 17 -7 -4 -10 96 -10 294 0 355 -9 336
125 274z m-2474 -173 c18 -10 19 -24 19 -286 0 -339 3 -330 -108 -372 -143
-54 -178 -65 -194 -60 -13 5 -16 46 -21 270 -7 334 -16 310 153 394 69 35 126
63 128 63 2 1 12 -4 23 -9z m680 -122 c13 -25 5 -207 -10 -237 -12 -21 -30
-30 -171 -81 -63 -23 -185 -68 -270 -101 -183 -69 -180 -70 -180 51 0 115 12
128 190 207 80 35 163 72 185 83 113 53 221 100 232 100 7 0 18 -10 24 -22z
m650 -110 c2 -38 -2 -265 -8 -413 -7 -173 -19 -181 -24 -15 -2 65 -3 69 -8 30
-7 -55 -20 -33 -23 38 l-1 47 -7 -50 c-4 -27 -8 -44 -8 -37 -2 9 -50 12 -202
12 -171 0 -200 -2 -200 -15 0 -8 -4 -15 -10 -15 -5 0 -10 7 -10 15 0 8 -4 15
-10 15 -5 0 -10 -5 -10 -11 0 -11 -24 -39 -34 -39 -3 0 -7 19 -8 43 0 23 -6
-32 -13 -123 l-12 -165 -1 200 c-1 122 -6 205 -12 211 -7 7 -6 22 5 47 12 29
23 39 57 49 24 6 45 15 48 19 5 6 45 17 97 26 18 3 31 9 28 13 -2 4 15 13 38
20 23 8 46 17 52 22 5 4 19 8 32 8 13 0 23 5 23 10 0 6 14 10 30 10 17 0 30 5
30 10 0 6 14 10 30 10 17 0 30 5 30 10 0 6 11 10 24 10 14 0 28 5 31 10 9 14
45 12 46 -2z m125 -13 c10 -8 34 -15 52 -15 20 0 31 -4 27 -10 -4 -6 8 -10 29
-10 20 0 36 -4 36 -9 0 -5 20 -14 44 -20 25 -6 48 -15 51 -21 3 -5 23 -10 43
-10 24 0 32 -3 24 -9 -9 -5 -1 -10 27 -15 23 -3 44 -14 50 -24 5 -9 7 -75 4
-149 -5 -103 -9 -133 -19 -133 -8 0 -14 11 -14 25 l0 25 -170 0 c-155 0 -170
2 -171 18 -1 9 -5 -2 -11 -25 -7 -33 -14 -43 -29 -43 -17 0 -19 7 -19 80 0 47
-4 80 -10 80 -15 0 -13 253 2 268 16 16 30 15 54 -3z m584 -188 c36 -13 101
-36 146 -51 63 -21 84 -32 93 -52 7 -17 11 -132 11 -368 0 -291 -2 -345 -15
-356 -12 -10 -44 -8 -157 10 -207 33 -188 -12 -188 444 0 373 2 396 35 396 5
0 39 -11 75 -23z m-2042 -279 c9 -9 12 -93 12 -315 0 -366 13 -334 -145 -364
-103 -20 -135 -22 -150 -9 -13 10 -15 57 -15 287 0 169 4 282 10 294 12 21 47
41 112 64 24 8 68 23 98 34 66 24 63 24 78 9z m-840 -539 c3 -279 5 -273 -98
-291 -36 -6 -85 -12 -110 -12 l-45 -1 -7 210 c-8 259 -10 253 112 300 47 19
99 33 115 32 l30 -2 3 -236z m2171 23 c6 -12 8 -137 4 -340 l-6 -322 -162 0
c-89 0 -216 -3 -281 -6 -105 -6 -122 -5 -137 10 -15 16 -17 46 -17 285 0 243
2 269 18 284 10 9 68 25 137 37 66 12 161 28 210 37 50 9 108 19 130 23 70 13
94 11 104 -8z m303 -17 c205 -34 195 -31 214 -66 14 -28 15 -63 9 -293 -5
-157 -12 -266 -18 -274 -15 -18 -389 -15 -415 4 -15 11 -18 44 -24 316 -4 184
-2 310 3 320 13 24 46 23 231 -7z m831 -134 c23 -5 76 -15 117 -21 41 -6 83
-14 93 -16 16 -5 17 -25 17 -244 0 -236 0 -239 -22 -251 -29 -15 -278 -4 -295
14 -15 16 -24 472 -10 505 11 24 34 27 100 13z m-498 -551 c15 0 24 -4 21 -8
-2 -4 4 -8 14 -8 10 0 16 4 13 9 -3 4 56 6 130 3 110 -4 138 -2 147 10 7 8 18
14 25 14 8 0 16 6 18 13 3 6 6 2 6 -11 1 -16 10 -26 31 -33 30 -11 32 -29 4
-29 -39 0 -46 -26 -45 -159 1 -70 -1 -135 -5 -145 -5 -13 -22 -16 -100 -16
-57 0 -94 -4 -94 -10 0 -7 -68 -10 -194 -9 -126 0 -201 -3 -215 -10 -13 -8
-76 -11 -178 -9 l-158 3 -1 150 c0 119 -4 157 -17 181 -14 28 -14 34 -2 44 7
6 11 18 8 26 -4 10 4 14 31 14 35 0 47 -12 25 -26 -6 -3 -15 -1 -19 7 -6 9
-11 5 -16 -14 -3 -16 -4 -31 0 -34 3 -4 6 1 6 10 0 20 4 21 32 6 18 -10 20 -9
15 5 -8 20 21 35 33 16 5 -9 19 -10 46 -5 22 3 101 9 177 12 75 2 137 9 137
13 0 5 7 7 15 4 8 -4 15 -1 15 6 0 6 4 9 9 5 5 -3 13 4 16 16 7 20 8 19 26
-10 13 -22 26 -31 44 -31z m-1920 -20 c7 0 16 6 19 13 3 6 3 1 0 -12 -4 -16
-2 -21 5 -17 7 5 9 1 5 -8 -3 -9 -9 -16 -13 -16 -16 0 -32 -87 -30 -159 2 -42
0 -82 -5 -89 -10 -16 -98 -16 -114 0 -10 10 -15 10 -21 -1 -6 -10 -21 -12 -52
-7 -24 4 -66 9 -92 12 -27 3 -50 11 -52 18 -2 6 -6 57 -9 114 -6 92 -4 103 11
108 10 3 25 9 34 14 8 4 66 6 128 4 93 -3 113 -1 118 12 3 8 12 13 20 10 7 -3
17 2 20 11 4 11 8 13 11 5 2 -7 10 -12 17 -12z m2750 -12 c22 -6 133 -10 248
-9 130 0 207 -3 207 -9 0 -6 16 -10 35 -10 19 0 35 -4 35 -10 0 -5 11 -10 25
-10 l25 0 0 -103 c0 -103 0 -104 -27 -118 -50 -25 -573 -50 -599 -28 -11 9
-14 8 -16 -2 -1 -8 -4 47 -7 122 -7 171 -5 168 -138 171 l-98 2 100 6 c153 9
167 9 210 -2z m-1478 -16 c9 -6 13 -62 15 -202 l3 -195 90 2 c161 4 579 22
635 27 30 3 106 8 169 11 63 2 120 10 127 16 11 9 14 46 14 159 0 126 2 149
16 154 9 3 71 6 138 6 169 0 165 4 168 -171 l3 -134 210 4 c116 2 207 0 204
-3 -7 -7 -178 -21 -454 -36 -93 -5 -204 -14 -245 -19 -41 -6 -104 -10 -139
-11 -36 0 -101 -4 -145 -10 -45 -5 -151 -15 -236 -21 -85 -6 -220 -15 -300
-21 -192 -14 -340 -14 -480 0 -182 18 -490 47 -765 71 -66 6 -142 13 -170 16
-27 2 -99 9 -160 14 -286 24 -376 32 -445 41 -41 5 -109 12 -150 14 -80 5
-160 14 -199 22 -18 4 -21 8 -12 17 7 7 11 47 11 104 0 101 -2 98 60 93 56 -5
60 -13 60 -119 0 -92 1 -99 21 -104 44 -12 49 -1 49 103 0 127 3 130 115 130
46 0 90 -3 99 -6 13 -5 16 -26 16 -125 l0 -118 33 -5 c17 -3 113 -9 212 -15
139 -8 181 -8 188 2 4 7 5 67 2 134 -6 119 -5 122 17 137 18 11 78 15 298 18
l275 3 5 -170 5 -170 30 0 30 0 3 161 c2 133 5 164 18 175 12 10 84 15 278 19
143 4 263 7 266 8 3 1 11 -2 17 -6z m-2479 -65 c6 -7 12 -48 13 -92 l2 -80
-64 4 c-35 2 -82 6 -104 10 l-40 6 -3 64 c-4 90 8 101 108 101 50 0 81 -4 88
-13z m306 -9 c3 -13 7 -60 8 -105 l3 -83 -34 0 c-18 0 -72 5 -120 11 l-86 12
1 76 c1 42 2 84 3 94 1 15 13 17 111 17 106 0 110 -1 114 -22z"/>
<path d="M5740 4489 c-10 -23 -12 -94 -8 -296 5 -243 7 -267 25 -291 19 -26
70 -55 202 -116 59 -27 63 -28 81 -11 19 17 20 33 20 277 0 177 -4 266 -12
281 -13 26 -34 47 -44 47 -4 0 -18 10 -31 22 -13 12 -25 19 -28 16 -3 -3 16
-22 43 -42 28 -20 53 -43 56 -52 3 -9 6 -132 6 -274 0 -228 -2 -259 -17 -271
-13 -11 -17 -11 -20 -1 -3 6 -16 12 -29 12 -13 0 -24 3 -24 8 0 4 -19 16 -43
26 -23 11 -55 25 -71 33 -16 7 -34 13 -40 13 -6 1 -21 17 -33 36 -23 35 -23
40 -20 325 1 159 1 289 1 289 -1 0 -7 -14 -14 -31z"/>
<path d="M5739 3778 c-7 -28 -10 -118 -7 -264 4 -245 8 -260 70 -283 18 -7 41
-17 50 -22 10 -5 26 -9 36 -9 10 0 22 -3 26 -7 10 -10 78 -33 99 -33 45 0 48
14 44 272 l-2 243 -3 -242 c-2 -221 -4 -243 -20 -252 -25 -13 -240 60 -265 90
-16 21 -18 44 -15 286 2 145 2 263 1 263 -1 0 -7 -19 -14 -42z"/>
<path d="M6100 2455 c-24 -26 -25 -31 -25 -173 0 -117 -3 -146 -13 -144 -8 1
-11 -2 -7 -8 3 -6 10 -8 14 -6 4 3 13 0 21 -5 13 -7 13 -10 1 -18 -9 -6 -10
-11 -2 -15 6 -4 11 -2 11 4 0 7 21 9 63 6 262 -18 288 -19 313 -5 40 21 50 54
47 149 -1 47 -2 97 -3 111 0 32 -50 89 -77 89 -10 0 -24 5 -31 12 -9 9 -12 9
-12 0 0 -7 -13 -12 -30 -12 -16 0 -30 4 -30 9 0 5 -26 12 -57 15 -32 3 -81 8
-108 12 -45 5 -52 3 -75 -21z m240 -38 c116 -19 130 -24 139 -51 4 -11 5 -72
3 -134 l-4 -113 -171 7 c-95 4 -178 11 -184 17 -14 11 -19 278 -5 291 9 10 98
3 222 -17z"/>
<path d="M4516 1410 c-42 -13 -83 -57 -90 -96 -9 -47 10 -109 41 -133 l26 -21
-42 0 -41 0 0 -42 c0 -58 30 -105 83 -128 33 -16 65 -20 157 -20 100 0 122 3
160 23 27 13 52 36 64 57 20 35 20 35 0 18 -11 -10 -37 -24 -58 -33 -35 -15
-42 -15 -87 0 -27 9 -51 20 -53 24 -10 15 7 51 24 51 10 0 24 7 31 16 18 22
-7 40 -80 55 -80 16 -128 38 -151 67 -40 50 -16 117 52 151 35 17 38 21 18 20
-14 0 -38 -5 -54 -9z"/>
<path d="M720 1383 c0 -16 38 -111 85 -213 l84 -185 112 0 c103 0 112 2 119
20 7 19 4 20 -26 17 -53 -6 -78 4 -139 60 -42 38 -66 71 -92 127 -59 127 -73
162 -73 182 0 15 -7 19 -35 19 -32 0 -35 -3 -35 -27z"/>
<path d="M1279 1373 c-11 -30 -13 -78 -9 -213 l5 -175 101 -3 101 -3 7 32 c3
17 6 43 6 58 1 23 5 18 37 -31 l36 -58 113 0 c107 0 114 1 114 20 0 17 -8 19
-82 22 l-83 3 -52 70 c-56 75 -83 92 -84 53 0 -15 -15 -35 -41 -56 -39 -31
-42 -32 -60 -15 -42 38 -58 99 -58 219 0 104 -2 114 -18 114 -13 0 -24 -13
-33 -37z"/>
<path d="M1894 1397 c-2 -7 -3 -102 -2 -212 l3 -200 101 -3 101 -3 7 32 c3 17
6 43 6 58 1 23 5 18 37 -31 l36 -58 433 0 432 0 11 30 c9 28 13 30 60 30 47 0
50 -2 56 -30 l7 -30 319 0 c312 0 319 0 319 20 0 18 -7 20 -73 20 -80 0 -135
21 -152 59 -11 23 -96 71 -127 71 -16 0 -18 11 -18 130 l0 130 -30 0 -30 0 0
-162 c-1 -137 -3 -159 -13 -140 l-13 22 -22 -30 c-26 -34 -45 -37 -126 -16
-83 22 -200 13 -246 -19 -20 -14 -44 -25 -53 -25 -17 0 -1 45 91 242 59 127
60 130 26 126 -25 -3 -34 -16 -96 -153 -43 -95 -68 -163 -68 -186 0 -24 -5
-39 -16 -43 -34 -13 -244 -6 -281 9 -19 8 -51 15 -69 15 l-34 0 -2 178 -3 177
-27 3 -28 3 0 -174 c0 -170 -1 -174 -24 -196 -20 -19 -33 -22 -82 -19 l-59 3
-52 70 c-54 73 -83 92 -83 55 0 -19 -38 -60 -76 -83 -8 -4 -20 3 -32 21 -25
34 -56 207 -50 274 5 47 5 48 -24 48 -16 0 -31 -6 -34 -13z"/>
<path d="M3570 1389 c8 -13 9 -57 5 -132 -5 -87 -4 -116 7 -130 16 -21 74 -36
141 -37 26 0 61 -7 77 -15 l30 -16 0 31 0 30 -110 0 -110 0 0 145 0 145 -25 0
c-23 0 -24 -2 -15 -21z"/>
<path d="M3950 1195 l0 -215 224 0 224 0 4 23 c4 22 4 22 -137 22 -140 0 -142
0 -178 28 -45 34 -47 57 -16 203 27 133 30 135 122 113 108 -26 196 -41 207
-34 6 3 10 22 10 41 l0 34 -230 0 -230 0 0 -215z"/>
<path d="M4874 1353 l6 -58 -73 -3 c-57 -3 -76 0 -86 12 -15 18 -58 21 -81 6
-21 -13 -15 -16 77 -38 70 -17 87 -25 114 -56 36 -42 69 -63 69 -45 0 6 -15
26 -34 45 -28 28 -31 34 -15 34 10 0 19 5 19 10 0 6 30 10 70 10 l69 0 3 -142
3 -143 103 -3 c96 -3 102 -2 102 17 0 17 -8 20 -52 23 -47 3 -55 7 -75 37 -20
30 -23 46 -23 142 l0 109 -70 0 -70 0 0 34 c0 50 -9 66 -37 66 -25 0 -25 -1
-19 -57z"/>
<path d="M5506 1402 c-28 -46 -166 -372 -166 -394 l0 -28 104 0 104 0 11 30
c9 28 13 30 60 30 47 0 50 -2 56 -30 l7 -30 109 0 c102 0 109 1 109 20 0 18
-7 20 -70 20 -69 0 -75 3 -103 43 -9 14 -32 19 -101 24 -119 8 -130 19 -124
117 3 45 15 93 32 133 14 34 26 65 26 68 0 8 -48 6 -54 -3z"/>
<path d="M5860 1340 l0 -70 70 0 69 0 3 -142 3 -143 103 -3 c97 -3 102 -2 102
18 0 17 -6 20 -46 20 -30 0 -56 7 -75 21 l-29 20 0 125 0 124 -70 0 -70 0 0
50 c0 49 -1 50 -30 50 l-30 0 0 -70z"/>
<path d="M6370 1196 l0 -216 225 0 c218 0 225 1 225 20 0 19 -7 20 -126 20
-215 0 -245 33 -263 290 -6 94 -6 95 -33 98 l-28 3 0 -215z"/>
<path d="M6732 1394 c29 -15 48 -42 48 -68 0 -13 -15 -16 -95 -16 -78 0 -95
-3 -95 -15 0 -12 17 -15 90 -15 l90 0 0 -50 0 -50 -90 0 c-83 0 -90 -1 -90
-20 0 -19 7 -20 104 -20 l105 0 6 48 c3 26 10 69 15 95 6 27 10 66 10 88 l0
39 -62 0 c-61 -1 -62 -1 -36 -16z"/>
</g>
</svg>
